<svg width="27" height="16" viewBox="0 0 27 16" fill="none" xmlns="http://www.w3.org/2000/svg">
<path d="M14.5938 14.9688C14.8854 13.8229 15.2292 12.625 15.625 11.375C16.0417 10.1042 16.4896 8.82292 16.9688 7.53125C17.4688 6.21875 17.9792 4.92708 18.5 3.65625C19.0417 2.38542 19.5729 1.16667 20.0938 0H26.9375C26.6458 1.25 26.3438 2.5625 26.0312 3.9375C25.7396 5.3125 25.4479 6.6875 25.1562 8.0625C24.8854 9.4375 24.6354 10.7708 24.4062 12.0625C24.1771 13.3542 23.9792 14.5521 23.8125 15.6562H15.0625L14.5938 14.9688ZM0 14.9688C0.291667 13.8229 0.635417 12.625 1.03125 11.375C1.44792 10.1042 1.89583 8.82292 2.375 7.53125C2.875 6.21875 3.38542 4.92708 3.90625 3.65625C4.44792 2.38542 4.97917 1.16667 5.5 0H12.375C12.0625 1.25 11.75 2.5625 11.4375 3.9375C11.1458 5.3125 10.8542 6.6875 10.5625 8.0625C10.2917 9.4375 10.0417 10.7708 9.8125 12.0625C9.58333 13.3542 9.38542 14.5521 9.21875 15.6562H0.46875L0 14.9688Z" fill="#E30517"/>
</svg>
