<svg width="32" height="32" viewBox="0 0 32 32" fill="none" xmlns="http://www.w3.org/2000/svg">
<g clip-path="url(#clip0_13649_20886)">
<path d="M5.94098 11.9178C6.19985 11.9178 6.40973 11.708 6.40973 11.4491V10.4491C6.40973 10.1902 6.19985 9.98035 5.94098 9.98035C5.6821 9.98035 5.47223 10.1902 5.47223 10.4491V11.4491C5.47223 11.708 5.6821 11.9178 5.94098 11.9178Z" fill="#E30517"/>
<path d="M8.14935 11.9178C8.40823 11.9178 8.6181 11.708 8.6181 11.4491V10.4491C8.6181 10.1902 8.40823 9.98035 8.14935 9.98035C7.89048 9.98035 7.6806 10.1902 7.6806 10.4491V11.4491C7.6806 11.708 7.89048 11.9178 8.14935 11.9178Z" fill="#E30517"/>
<path d="M5.47223 15.1991C5.47223 15.458 5.6821 15.6678 5.94098 15.6678C6.19985 15.6678 6.40973 15.458 6.40973 15.1991V14.1991C6.40973 13.9402 6.19985 13.7303 5.94098 13.7303C5.6821 13.7303 5.47223 13.9402 5.47223 14.1991V15.1991Z" fill="#E30517"/>
<path d="M7.6806 15.1991C7.6806 15.458 7.89048 15.6678 8.14935 15.6678C8.40823 15.6678 8.6181 15.458 8.6181 15.1991V14.1991C8.6181 13.9402 8.40823 13.7303 8.14935 13.7303C7.89048 13.7303 7.6806 13.9402 7.6806 14.1991V15.1991Z" fill="#E30517"/>
<path d="M5.47223 18.9491C5.47223 19.208 5.6821 19.4178 5.94098 19.4178C6.19985 19.4178 6.40973 19.208 6.40973 18.9491V17.9491C6.40973 17.6902 6.19985 17.4803 5.94098 17.4803C5.6821 17.4803 5.47223 17.6902 5.47223 17.9491V18.9491Z" fill="#E30517"/>
<path d="M7.6806 18.9491C7.6806 19.208 7.89048 19.4178 8.14935 19.4178C8.40823 19.4178 8.6181 19.208 8.6181 18.9491V17.9491C8.6181 17.6902 8.40823 17.4803 8.14935 17.4803C7.89048 17.4803 7.6806 17.6902 7.6806 17.9491V18.9491Z" fill="#E30517"/>
<path d="M5.47223 22.6991C5.47223 22.958 5.6821 23.1678 5.94098 23.1678C6.19985 23.1678 6.40973 22.958 6.40973 22.6991V21.6991C6.40973 21.4402 6.19985 21.2303 5.94098 21.2303C5.6821 21.2303 5.47223 21.4402 5.47223 21.6991V22.6991Z" fill="#E30517"/>
<path d="M7.6806 22.6991C7.6806 22.958 7.89048 23.1678 8.14935 23.1678C8.40823 23.1678 8.6181 22.958 8.6181 22.6991V21.6991C8.6181 21.4402 8.40823 21.2303 8.14935 21.2303C7.89048 21.2303 7.6806 21.4402 7.6806 21.6991V22.6991Z" fill="#E30517"/>
<path d="M31.5312 14.2928H28.8827V8.82409C28.8827 8.62666 28.759 8.45041 28.5732 8.38322L21.6551 5.88322C21.5114 5.83141 21.3515 5.85266 21.2265 5.94041C21.1014 6.02816 21.0271 6.17128 21.0271 6.32409V9.98034H18.6203C18.3614 9.98034 18.1516 10.1902 18.1516 10.4491C18.1516 10.708 18.3614 10.9178 18.6203 10.9178H21.0271V25.2071H19.2188V22.9587C19.2188 22.2813 18.6677 21.7303 17.9904 21.7303H14.0096C13.3323 21.7303 12.7813 22.2813 12.7813 22.9587V25.2071H10.9731V10.9178H16.7453C17.0042 10.9178 17.214 10.708 17.214 10.4491C17.214 10.1902 17.0042 9.98034 16.7453 9.98034H10.9731V6.32409C10.9731 6.17134 10.8987 6.02822 10.7737 5.94041C10.6486 5.85259 10.4886 5.83141 10.3451 5.88322L3.42688 8.38322C3.24119 8.45034 3.11744 8.62666 3.11744 8.82409V11.2485C3.11744 11.5074 3.32731 11.7172 3.58619 11.7172C3.84506 11.7172 4.05494 11.5074 4.05494 11.2485V9.15309L10.0356 6.99184V25.207H0.9375V24.3136H2.54331C3.10044 24.3136 3.55375 23.8603 3.55375 23.3032V17.7615C3.55375 17.2044 3.1005 16.7511 2.54331 16.7511H0.9375V15.2303H3.58606C3.84494 15.2303 4.05481 15.0205 4.05481 14.7615V13.1234C4.05481 12.8645 3.84494 12.6547 3.58606 12.6547C3.32719 12.6547 3.11731 12.8645 3.11731 13.1234V14.2928H0.46875C0.209875 14.2928 0 14.5026 0 14.7615V25.6758C0 25.9347 0.209875 26.1445 0.46875 26.1445H31.5312C31.7902 26.1445 32 25.9347 32 25.6758V14.7616C32 14.5027 31.7901 14.2928 31.5312 14.2928ZM2.54331 17.6887C2.5835 17.6887 2.61625 17.7213 2.61625 17.7616V23.3032C2.61625 23.3435 2.58356 23.3762 2.54331 23.3762H0.9375V17.6887H2.54331ZM13.7188 25.2071V22.9587C13.7188 22.7983 13.8492 22.6678 14.0096 22.6678H17.9904C18.1507 22.6678 18.2812 22.7983 18.2812 22.9587V25.2071H13.7188ZM21.9644 25.2071V6.99184L27.9451 9.15309V14.7615C27.9451 15.0205 28.1549 15.2303 28.4139 15.2303H31.0625V16.7511H29.4567C28.8996 16.7511 28.4463 17.2044 28.4463 17.7615V20.2198C28.4463 20.4788 28.6561 20.6886 28.9151 20.6886C29.174 20.6886 29.3838 20.4788 29.3838 20.2198V17.7615C29.3838 17.7213 29.4165 17.6886 29.4567 17.6886H31.0625V23.3761H29.4567C29.4165 23.3761 29.3838 23.3434 29.3838 23.3032V22.0948C29.3838 21.8359 29.174 21.6261 28.9151 21.6261C28.6561 21.6261 28.4463 21.8359 28.4463 22.0948V23.3032C28.4463 23.8603 28.8996 24.3136 29.4567 24.3136H31.0625V25.207H21.9644V25.2071Z" fill="#E30517"/>
<path d="M26.059 9.98035C25.8 9.98035 25.5902 10.1902 25.5902 10.4491V11.4491C25.5902 11.708 25.8 11.9178 26.059 11.9178C26.3179 11.9178 26.5277 11.708 26.5277 11.4491V10.4491C26.5277 10.1902 26.3178 9.98035 26.059 9.98035Z" fill="#E30517"/>
<path d="M23.8506 9.98035C23.5917 9.98035 23.3819 10.1902 23.3819 10.4491V11.4491C23.3819 11.708 23.5917 11.9178 23.8506 11.9178C24.1096 11.9178 24.3194 11.708 24.3194 11.4491V10.4491C24.3194 10.1902 24.1095 9.98035 23.8506 9.98035Z" fill="#E30517"/>
<path d="M26.059 13.7303C25.8 13.7303 25.5902 13.9402 25.5902 14.1991V15.1991C25.5902 15.458 25.8 15.6678 26.059 15.6678C26.3179 15.6678 26.5277 15.458 26.5277 15.1991V14.1991C26.5277 13.9402 26.3178 13.7303 26.059 13.7303Z" fill="#E30517"/>
<path d="M23.8506 13.7303C23.5917 13.7303 23.3819 13.9402 23.3819 14.1991V15.1991C23.3819 15.458 23.5917 15.6678 23.8506 15.6678C24.1096 15.6678 24.3194 15.458 24.3194 15.1991V14.1991C24.3194 13.9402 24.1095 13.7303 23.8506 13.7303Z" fill="#E30517"/>
<path d="M26.059 17.4803C25.8 17.4803 25.5902 17.6902 25.5902 17.9491V18.9491C25.5902 19.208 25.8 19.4178 26.059 19.4178C26.3179 19.4178 26.5277 19.208 26.5277 18.9491V17.9491C26.5277 17.6902 26.3178 17.4803 26.059 17.4803Z" fill="#E30517"/>
<path d="M23.8506 17.4803C23.5917 17.4803 23.3819 17.6902 23.3819 17.9491V18.9491C23.3819 19.208 23.5917 19.4178 23.8506 19.4178C24.1096 19.4178 24.3194 19.208 24.3194 18.9491V17.9491C24.3194 17.6902 24.1095 17.4803 23.8506 17.4803Z" fill="#E30517"/>
<path d="M26.059 21.2303C25.8 21.2303 25.5902 21.4402 25.5902 21.6991V22.6991C25.5902 22.958 25.8 23.1678 26.059 23.1678C26.3179 23.1678 26.5277 22.958 26.5277 22.6991V21.6991C26.5277 21.4402 26.3178 21.2303 26.059 21.2303Z" fill="#E30517"/>
<path d="M23.8506 21.2303C23.5917 21.2303 23.3819 21.4402 23.3819 21.6991V22.6991C23.3819 22.958 23.5917 23.1678 23.8506 23.1678C24.1096 23.1678 24.3194 22.958 24.3194 22.6991V21.6991C24.3194 21.4402 24.1095 21.2303 23.8506 21.2303Z" fill="#E30517"/>
<path d="M18.9642 15.0477L19.0106 14.6701C19.1557 13.4893 18.3972 12.3727 17.2461 12.0725L16.1753 11.7932C15.2513 11.5525 14.2758 11.8841 13.6904 12.6387L13.4025 13.0098C12.7956 13.7921 12.9012 14.9186 13.6429 15.5745C13.8153 15.727 13.867 15.9703 13.7715 16.1798L13.709 16.3168C13.4167 16.9577 13.6241 17.7149 14.2021 18.1175C14.4518 18.2913 14.7424 18.3795 15.0345 18.3795C15.2637 18.3795 15.4939 18.3252 15.7058 18.2153L17.3579 17.3587C18.2422 16.9002 18.8426 16.0363 18.9642 15.0477ZM18.0801 14.5557L18.0337 14.9332C17.9499 15.6148 17.536 16.2104 16.9264 16.5264L15.2742 17.3831C15.1024 17.4723 14.8968 17.4589 14.7379 17.3482C14.5317 17.2045 14.4577 16.9344 14.562 16.7058L14.6245 16.5687C14.8922 15.9815 14.7473 15.2998 14.2639 14.8723C13.8915 14.5429 13.8385 13.9773 14.1432 13.5845L14.4311 13.2134C14.7862 12.7556 15.378 12.5543 15.9387 12.7004L17.0095 12.9797C17.708 13.1618 18.1682 13.8393 18.0801 14.5557Z" fill="#E30517"/>
<path d="M16 13.5428C15.7411 13.5428 15.5312 13.7527 15.5312 14.0116V14.3657C15.5312 14.6247 15.7411 14.8345 16 14.8345C16.2589 14.8345 16.4688 14.6247 16.4688 14.3657V14.0116C16.4688 13.7527 16.2589 13.5428 16 13.5428Z" fill="#E30517"/>
<path d="M14.5533 19.7095C14.2944 19.7095 14.0845 19.9193 14.0845 20.1782C14.0845 20.4372 14.2944 20.647 14.5533 20.647H17.4467C17.7056 20.647 17.9154 20.4372 17.9154 20.1782C17.9154 19.9193 17.7056 19.7095 17.4467 19.7095H14.5533Z" fill="#E30517"/>
</g>
<defs>
<clipPath id="clip0_13649_20886">
<rect width="32" height="32" fill="white"/>
</clipPath>
</defs>
</svg>
