<svg width="32" height="32" viewBox="0 0 32 32" fill="none" xmlns="http://www.w3.org/2000/svg">
<mask id="mask0_13649_20892" style="mask-type:luminance" maskUnits="userSpaceOnUse" x="0" y="0" width="32" height="32">
<path d="M0 3.8147e-06H32V32H0V3.8147e-06Z" fill="white"/>
</mask>
<g mask="url(#mask0_13649_20892)">
<path d="M0.502935 15.0207L3.708 6.89649C3.80693 6.64562 4.09056 6.52243 4.34143 6.62143L6.89175 7.62755C7.14262 7.72649 7.26581 8.01012 7.16681 8.26099L3.96175 16.3852C3.86281 16.6361 3.57918 16.7592 3.32831 16.6602L0.777997 15.6542C0.527122 15.5552 0.403997 15.2716 0.502935 15.0207Z" stroke="#E30517" stroke-miterlimit="10" stroke-linecap="round" stroke-linejoin="round"/>
<path d="M22.9636 19.5649L21.2952 18.2794" stroke="#E30517" stroke-miterlimit="10" stroke-linecap="round" stroke-linejoin="round"/>
<path d="M20.731 21.3615L19.2477 20.2195" stroke="#E30517" stroke-miterlimit="10" stroke-linecap="round" stroke-linejoin="round"/>
<path d="M18.2772 22.9976L17.2202 22.1795" stroke="#E30517" stroke-miterlimit="10" stroke-linecap="round" stroke-linejoin="round"/>
<path d="M7.13392 20.3104C6.61192 19.8678 6.54754 19.0859 6.99017 18.5639L8.14885 17.2038C8.59148 16.6818 9.37348 16.6174 9.89542 17.0601C10.4174 17.5026 10.4818 18.2846 10.0392 18.8066L8.88048 20.1667C8.43785 20.6887 7.65592 20.7531 7.13392 20.3104Z" stroke="#E30517" stroke-miterlimit="10" stroke-linecap="round" stroke-linejoin="round"/>
<path d="M9.02421 21.9132C8.50221 21.4706 8.4379 20.6887 8.88046 20.1667L10.0392 18.8066C10.4818 18.2846 11.2638 18.2202 11.7858 18.6628C12.3078 19.1054 12.3721 19.8874 11.9295 20.4093L10.7708 21.7695C10.3281 22.2915 9.54621 22.3558 9.02421 21.9132Z" stroke="#E30517" stroke-miterlimit="10" stroke-linecap="round" stroke-linejoin="round"/>
<path d="M10.9146 23.516C10.3926 23.0734 10.3282 22.2914 10.7708 21.7694L11.9296 20.4093C12.3721 19.8874 13.1541 19.823 13.6761 20.2656C14.1981 20.7082 14.2624 21.4901 13.8198 22.0121L12.6611 23.3722C12.2185 23.8942 11.4366 23.9586 10.9146 23.516Z" stroke="#E30517" stroke-miterlimit="10" stroke-linecap="round" stroke-linejoin="round"/>
<path d="M12.8049 25.1188C12.2829 24.6762 12.2185 23.8942 12.6611 23.3722L13.8198 22.0122C14.2624 21.4902 15.0444 21.4258 15.5664 21.8684C16.0884 22.311 16.1528 23.0929 15.7101 23.6149L14.5514 24.975C14.1088 25.497 13.3269 25.5614 12.8049 25.1188Z" stroke="#E30517" stroke-miterlimit="10" stroke-linecap="round" stroke-linejoin="round"/>
<path d="M25.0426 17.6049L24.4194 17.145L21.4881 14.9817L21.1523 14.7455C18.385 15.2156 16.5298 13.6994 15.7746 12.9108C15.5525 12.6788 15.1859 12.67 14.947 12.8846C12.3521 15.215 10.8495 14.6177 10.12 13.9245C9.76914 13.5912 9.82951 13.0166 10.2368 12.7552C11.6315 11.86 12.9339 10.7269 13.8645 9.84385L13.6988 9.78179C13.1097 9.56104 12.4906 9.43085 11.8626 9.39554L10.1466 9.29917C9.92183 9.28654 9.69639 9.28373 9.47176 9.29817C9.0667 9.32423 8.66001 9.25648 8.28376 9.09904L7.04133 8.57917L3.9942 16.303L6.40314 17.8222L7.16551 18.3581L8.14895 17.2039C8.59151 16.6818 9.37345 16.6175 9.89545 17.06C10.4175 17.5027 10.4818 18.2846 10.0392 18.8066C10.4818 18.2846 11.2638 18.2202 11.7858 18.6629C12.3078 19.1055 12.3721 19.8874 11.9295 20.4094C12.3721 19.8874 13.1541 19.823 13.6761 20.2657C14.1981 20.7082 14.2625 21.4902 13.8198 22.0122C14.2625 21.4902 15.0444 21.4259 15.5664 21.8684C16.0884 22.311 16.1528 23.093 15.7101 23.615L15.2401 24.1667L16.2747 24.9302C16.8493 25.3542 17.659 25.3055 18.1523 24.7894C18.6325 24.287 18.6611 23.5307 18.2772 22.9976L18.796 23.3804C19.3876 23.817 20.2255 23.75 20.7118 23.1986C21.1828 22.6644 21.1709 21.8807 20.731 21.3615L21.0225 21.5765C21.5866 21.9928 22.3794 21.955 22.8758 21.4599C23.4034 20.9334 23.4174 20.1087 22.9636 19.565L23.4011 19.888C24.0128 20.3393 24.874 20.2234 25.344 19.622C25.8347 18.9942 25.6838 18.0781 25.0426 17.6049Z" stroke="#E30517" stroke-miterlimit="10" stroke-linecap="round" stroke-linejoin="round"/>
<path d="M18.0303 8.85939L16.251 8.57739C15.6491 8.48196 15.0374 8.68127 14.609 9.11464C13.7261 10.0078 12.06 11.5849 10.2368 12.7551C9.82952 13.0165 9.76908 13.591 10.12 13.9244C10.8495 14.6176 12.3521 15.2149 14.947 12.8845C15.1859 12.6698 15.5525 12.6786 15.7746 12.9106C16.5311 13.7005 18.3908 15.2206 21.1655 14.7435L25.3371 17.8221L27.9444 16.1474L24.967 8.60014L23.1573 9.26821C22.6554 9.45346 22.1143 9.50671 21.586 9.42302L20.2039 9.20396" stroke="#E30517" stroke-miterlimit="10" stroke-linecap="round" stroke-linejoin="round"/>
<path d="M29.5276 10.0286L28.2919 6.89646C28.193 6.64565 27.9094 6.52246 27.6585 6.6214L25.1082 7.62752C24.8573 7.72652 24.7342 8.01015 24.8331 8.26096L28.0382 16.3852C28.1371 16.6361 28.4208 16.7592 28.6716 16.6603L31.2219 15.6541C31.4729 15.5551 31.596 15.2716 31.497 15.0207L30.3314 12.066" stroke="#E30517" stroke-miterlimit="10" stroke-linecap="round" stroke-linejoin="round"/>
</g>
</svg>
