<svg width="1126" height="2298" viewBox="0 0 1126 2298" fill="none" xmlns="http://www.w3.org/2000/svg">
<path d="M1065.09 873.712L162.639 806.294C298.078 656.035 488.473 577.47 682.512 591.926L682.537 591.417L682.512 591.926L1277.9 636.087L1065.09 873.712Z" stroke="#E8E8E8"/>
<path d="M1091.73 208.741L1091.73 208.743L1277.86 636.357L951.027 612.08L751.156 151.702C853.619 37.809 1030.85 67.1023 1091.73 208.741Z" stroke="#E8E8E8"/>
<path d="M1074.09 1886.71L171.639 1819.29C307.078 1669.03 497.473 1590.47 691.512 1604.93L691.537 1604.42L691.512 1604.93L1286.9 1649.09L1074.09 1886.71Z" stroke="#E8E8E8"/>
<path d="M1100.73 1221.74L1100.73 1221.74L1286.86 1649.36L960.027 1625.08L760.156 1164.7C862.619 1050.81 1039.85 1080.1 1100.73 1221.74Z" stroke="#E8E8E8"/>
</svg>
