<svg width="144" height="32" viewBox="0 0 144 32" fill="none" xmlns="http://www.w3.org/2000/svg">
<path d="M0 31.5051L24.4909 18.7237L26.4013 9.44092L10.2429 17.8841C4.97183 20.6362 1.21994 25.6275 0 31.5051Z" fill="#810F02"/>
<path d="M5.29395 5.94229L17.5164 14.0822L26.4012 9.44084L15.0304 1.88399C11.2786 -0.634961 6.21465 1.48749 5.29395 5.94229Z" fill="#E30517"/>
<path d="M45.2657 24.4899H42.0644V16.0625H39.1654L39.1955 24.4899H35.9941L36.0246 4.95654H39.1654V13.2936L42.0644 13.2635L42.0948 4.95654H45.2356L45.2657 24.4899Z" fill="#E30517"/>
<path d="M57.0732 24.4899H53.9325L53.2077 20.0355H50.9123L50.1574 24.4899H47.0166L50.4896 4.92651L53.7211 4.95662L57.0732 24.4899ZM52.7244 16.9054L52.0901 12.1499L51.4558 16.9054H52.7244Z" fill="#E30517"/>
<path d="M68.6678 24.4899H65.6175L65.648 19.7044C65.648 18.5406 65.2453 17.7881 64.4399 17.447C63.9767 17.2664 63.0606 17.1762 61.6917 17.1762L61.7218 24.4899H58.5811V4.89632L63.9265 4.86621C65.1748 4.86621 66.2417 5.30765 67.1276 6.19052C68.0135 7.07339 68.4565 8.13684 68.4565 9.38086V12.7518C68.4565 13.3538 68.2652 13.9958 67.8825 14.678C67.5201 15.3603 67.0771 15.8117 66.5539 16.0324C67.1174 16.2933 67.6007 16.6946 68.0034 17.2363C68.4463 17.8383 68.6678 18.4302 68.6678 19.0121V24.4899ZM65.4363 11.9392V10.0731C65.4363 9.08992 65.2853 8.41775 64.9835 8.05658C64.6814 7.6954 64.0373 7.5148 63.0507 7.5148H61.6917V14.4372C62.96 14.4573 63.5943 14.4674 63.5943 14.4674C64.8223 14.4674 65.4363 13.6246 65.4363 11.9392Z" fill="#E30517"/>
<path d="M80.494 24.4899H77.444L77.4741 19.7044C77.4741 18.5406 77.0715 17.7881 76.2661 17.447C75.8032 17.2664 74.8871 17.1762 73.5179 17.1762L73.548 24.4899H70.4072V4.89632L75.7527 4.86621C77.001 4.86621 78.0681 5.30765 78.9541 6.19052C79.8397 7.07339 80.2827 8.13684 80.2827 9.38086V12.7518C80.2827 13.3538 80.0913 13.9958 79.709 14.678C79.3466 15.3603 78.9036 15.8117 78.3801 16.0324C78.9439 16.2933 79.4272 16.6946 79.8299 17.2363C80.2725 17.8383 80.494 18.4302 80.494 19.0121V24.4899ZM77.2628 11.9392V10.0731C77.2628 9.08992 77.1118 8.41775 76.8097 8.05658C76.5076 7.6954 75.8634 7.5148 74.8769 7.5148H73.5179V14.4372C74.7865 14.4573 75.4205 14.4674 75.4205 14.4674C76.6488 14.4674 77.2628 13.6246 77.2628 11.9392Z" fill="#E30517"/>
<path d="M92.1689 4.95654L88.6052 18.6509C88.5449 18.8917 88.5147 19.4034 88.5147 20.1859C88.5147 20.6675 88.5249 21.3898 88.5449 22.353C88.5852 23.3161 88.6052 24.0284 88.6052 24.4899H85.4644L85.4343 19.9752C85.4343 19.5739 85.4343 19.1526 85.4343 18.7111L82.1123 4.95654H85.2531L87.0954 13.6848L89.0282 4.95654H92.1689Z" fill="#E30517"/>
<path d="M108.047 12.9926L108.017 15.7916H102.007V24.4898H98.8967L98.8663 4.95647L108.047 4.92637L108.017 7.72545H102.068L102.037 13.0226L108.047 12.9926Z" fill="#0A0A0A"/>
<path d="M119.101 20.2761C119.101 21.5202 118.658 22.5836 117.772 23.4665C116.886 24.3493 115.819 24.7908 114.571 24.7908H113.786C112.538 24.7908 111.47 24.3493 110.585 23.4665C109.699 22.5836 109.256 21.5202 109.256 20.2761V9.0798C109.256 7.83578 109.699 6.77234 110.585 5.88946C111.47 5.00659 112.538 4.56519 113.786 4.56519H114.571C115.819 4.56519 116.886 5.00659 117.772 5.88946C118.658 6.77234 119.101 7.83578 119.101 9.0798V20.2761ZM116.081 19.4635V9.77204C116.081 8.98951 116.001 8.41766 115.839 8.05648C115.578 7.51474 115.105 7.24385 114.42 7.24385C112.991 7.24385 112.276 8.08659 112.276 9.77204V19.4635C112.276 21.149 112.93 21.9917 114.239 21.9917C115.467 21.9917 116.081 21.149 116.081 19.4635Z" fill="#0A0A0A"/>
<path d="M130.691 20.2761C130.691 21.5202 130.248 22.5836 129.362 23.4665C128.477 24.3494 127.409 24.7908 126.161 24.7908H125.376C124.128 24.7908 123.061 24.3494 122.175 23.4665C121.289 22.5836 120.846 21.5202 120.846 20.2761V9.07984C120.846 7.83582 121.289 6.77237 122.175 5.8895C123.061 5.00663 124.128 4.56522 125.376 4.56522H126.161C127.409 4.56522 128.477 5.00663 129.362 5.8895C130.248 6.77237 130.691 7.83582 130.691 9.07984V20.2761ZM127.671 19.4635V9.77208C127.671 8.98955 127.591 8.4177 127.429 8.05652C127.168 7.51477 126.695 7.24389 126.01 7.24389C124.581 7.24389 123.866 8.08663 123.866 9.77208V19.4635C123.866 21.149 124.52 21.9917 125.829 21.9917C127.057 21.9917 127.671 21.149 127.671 19.4635Z" fill="#0A0A0A"/>
<path d="M142.251 20.2761C142.251 21.5402 141.899 22.5636 141.194 23.3461C140.51 24.1086 139.543 24.4898 138.295 24.4898H132.376V4.89629L137.721 4.86619C138.97 4.86619 140.037 5.30762 140.923 6.1905C141.808 7.07334 142.251 8.13678 142.251 9.38083V20.2761ZM139.231 19.4635V10.0731C139.231 9.10994 139.11 8.45783 138.869 8.11673C138.547 7.71543 137.892 7.51478 136.906 7.51478H135.426V21.9616C136.735 21.9817 137.389 21.9917 137.389 21.9917C138.134 21.9917 138.648 21.7409 138.929 21.2393C139.131 20.8781 139.231 20.2862 139.231 19.4635Z" fill="#0A0A0A"/>
</svg>
