<svg width="32" height="32" viewBox="0 0 32 32" fill="none" xmlns="http://www.w3.org/2000/svg">
<path d="M27.2189 7.79693C24.2148 6.0423 20.2304 5.07593 16 5.07593C13.0756 5.07593 10.2021 5.5233 7.69006 6.36968C7.44531 6.45212 7.31375 6.71743 7.39625 6.96212C7.47869 7.2068 7.744 7.3383 7.98875 7.25599C10.4056 6.44162 13.1759 6.01118 16 6.01118C20.0672 6.01118 23.884 6.93218 26.7472 8.60455C29.5314 10.2308 31.0648 12.3656 31.0648 14.6158C31.0648 14.7027 31.0592 15.0014 31.0561 15.088C30.978 17.2486 30.3532 19.0801 29.2492 20.3841C27.9451 21.9246 25.9738 22.7699 23.3899 22.8963C23.132 22.9089 22.9331 23.1283 22.9457 23.3862C22.9584 23.6442 23.1763 23.8431 23.4357 23.8305C26.2887 23.6909 28.4848 22.7347 29.9631 20.9885C30.3699 20.5078 30.7188 19.9667 31.0069 19.3727C30.8364 20.9963 30.1178 22.5291 28.9732 23.7036C27.7951 24.9126 26.2206 25.6871 24.5399 25.8846C23.9501 25.9539 23.3293 25.989 22.6949 25.989C21.8506 25.989 20.9519 25.9281 20.024 25.8079C16.9837 25.4142 14.9477 23.5251 13.461 22.1457C12.2543 21.0262 11.4766 20.3399 10.7264 20.3399C10.6648 20.3399 10.6029 20.3438 10.5378 20.3519C9.58431 20.4683 8.65481 20.5274 7.77494 20.5274C6.693 20.5274 5.43331 20.3447 4.132 19.9989C2.35331 19.5264 1.08156 17.9673 0.947062 16.1451C0.964188 16.164 0.981937 16.1827 0.9995 16.2015C1.00669 16.2092 1.01375 16.2169 1.021 16.2246C1.06231 16.2682 1.10494 16.3112 1.14869 16.3539C1.15825 16.3632 1.16794 16.3724 1.17762 16.3817C1.22312 16.4252 1.26944 16.4685 1.31744 16.5111C1.37287 16.5601 1.42981 16.6083 1.48812 16.6556C3.28856 18.1128 6.46288 18.6858 10.2571 18.2311C10.2751 18.229 10.2929 18.2272 10.3109 18.225C10.3544 18.2197 10.3973 18.2159 10.4401 18.2122C10.5578 18.2023 10.6736 18.1981 10.787 18.2004C12.2829 18.2309 13.4274 19.2928 14.7333 20.5044C16.1788 21.8456 17.8173 23.3659 20.2641 23.6827C20.2645 23.6828 20.2648 23.6827 20.2652 23.6828C20.5713 23.7225 20.8766 23.7555 21.1726 23.7809C21.4303 23.8024 21.6564 23.6122 21.6785 23.3549C21.7006 23.0976 21.5099 22.8711 21.2526 22.849C20.9696 22.8247 20.6775 22.7932 20.3843 22.7552C18.7261 22.5404 17.4807 21.6876 16.3516 20.7093C16.0166 20.419 15.6917 20.1178 15.3694 19.8187C14.0661 18.6094 12.8235 17.4569 11.1648 17.2852C10.8576 17.2534 10.5362 17.2552 10.1975 17.2966C10.0904 17.3097 9.98388 17.3217 9.87788 17.3332C9.86219 17.3349 9.84656 17.3365 9.83088 17.3382C8.14488 17.5159 6.608 17.4811 5.29738 17.2476C5.27606 17.2437 5.25494 17.2397 5.23387 17.2357C5.20506 17.2304 5.17675 17.2247 5.14813 17.2192C3.51031 16.8973 2.55381 16.3137 2.06562 15.9191C2.02206 15.8834 1.97894 15.8476 1.93731 15.8107C1.28169 15.2304 0.935188 14.5345 0.935188 13.7985C0.935188 11.6653 2.77762 9.57243 5.99 8.05649C6.22356 7.94624 6.32356 7.66755 6.21331 7.43399C6.10306 7.20043 5.82425 7.10037 5.59081 7.21074C2.03781 8.88737 0 11.2885 0 13.7984V15.8244C0 18.2057 1.60037 20.2939 3.89188 20.9027C5.27038 21.269 6.61319 21.4626 7.775 21.4625C8.69256 21.4625 9.66025 21.4011 10.6514 21.2801C10.6787 21.2767 10.7032 21.2751 10.7264 21.2751C11.1477 21.2751 12.0387 22.1018 12.8249 22.8312C14.4041 24.2964 16.5668 26.3031 19.9038 26.7352C20.8714 26.8606 21.8105 26.9241 22.6949 26.9241C23.3657 26.9241 24.0231 26.8869 24.649 26.8134C26.5421 26.5909 28.3157 25.7183 29.643 24.3562C30.9742 22.9901 31.7947 21.1941 31.9533 19.2987L31.9592 19.2249C31.9601 19.2141 31.9606 19.2031 31.9607 19.1921L31.9912 15.1083C31.9918 15.0205 32 14.7087 32 14.6158C32 12.0194 30.3021 9.59774 27.2189 7.79693Z" fill="#E30517"/>
<path d="M26.2126 9.51979C23.5091 7.94079 19.8822 7.07117 16 7.07117C12.1901 7.07117 8.45099 7.90854 5.74162 9.36848C3.36068 10.6514 1.99518 12.266 1.99518 13.7985C1.99518 14.2018 2.19368 14.804 3.13943 15.3824C4.20374 16.0332 5.84993 16.3915 7.77487 16.3915C8.49874 16.3915 9.27055 16.342 10.0689 16.2445C10.2887 16.2177 10.51 16.204 10.7264 16.204C13.0319 16.204 14.6567 17.7116 16.0903 19.0418C17.4357 20.2901 18.7065 21.4692 20.5204 21.704C21.2841 21.8029 22.0157 21.8531 22.6949 21.8531C25.2957 21.8531 27.2279 21.1294 28.4378 19.7021C29.7329 18.1744 30.0048 16.093 30.0048 14.6159C30.0048 12.109 27.6289 10.3471 26.2126 9.51979ZM27.7244 19.0974C26.7004 20.3054 25.0082 20.9179 22.6949 20.9179C22.0558 20.9179 21.3646 20.8703 20.6405 20.7765C19.1233 20.58 17.9591 19.4998 16.7264 18.3562C15.1667 16.9091 13.3989 15.2689 10.7264 15.2689C10.4722 15.2689 10.2129 15.2848 9.95555 15.3162C9.19468 15.4092 8.46099 15.4563 7.77493 15.4563C6.01974 15.4564 4.5468 15.1467 3.62743 14.5845C3.19755 14.3217 2.93049 14.0205 2.93049 13.7986C2.93049 12.6557 4.17768 11.2737 6.18524 10.192C8.76262 8.80298 12.34 8.00648 16 8.00648C19.719 8.00648 23.1784 8.83073 25.7409 10.3275C28.6371 12.0191 29.0696 13.7404 29.0696 14.6159C29.0696 15.9365 28.8362 17.7859 27.7244 19.0974Z" fill="#E30517"/>
<path d="M7.97659 10.4005C6.76403 10.4005 5.77747 11.387 5.77747 12.5996C5.77753 13.8121 6.76403 14.7987 7.97659 14.7987C9.18922 14.7987 10.1757 13.8122 10.1757 12.5996C10.1757 11.3869 9.18922 10.4005 7.97659 10.4005ZM7.97659 13.8634C7.27972 13.8634 6.71272 13.2965 6.71272 12.5996C6.71272 11.9027 7.27972 11.3357 7.97659 11.3357C8.67353 11.3357 9.24047 11.9027 9.24047 12.5996C9.24047 13.2965 8.67347 13.8634 7.97659 13.8634Z" fill="#E30517"/>
</svg>
