<svg width="32" height="32" viewBox="0 0 32 32" fill="none" xmlns="http://www.w3.org/2000/svg">
<g clip-path="url(#clip0_14004_21103)">
<path d="M29 13.9998H28.4999V7.49982H21.45L20.6622 -0.000976562H17.3378L16.5498 7.49982H15.4502L14.6622 -0.000976562H11.3378L10.5499 7.49982H3.50002V13.9998H2.99991C2.46968 14.0004 1.96133 14.2113 1.58639 14.5862C1.21146 14.9612 1.00057 15.4695 1 15.9997V22.9997H1.99986V15.9997C2.00025 15.7346 2.10573 15.4805 2.29319 15.293C2.48066 15.1056 2.7348 15.0001 2.99991 14.9997H3.50002V24.9998H4.49989V8.49968H27.5V24.9998H28.4999V14.9997H29C29.2651 15.0001 29.5193 15.1056 29.7067 15.293C29.8942 15.4805 29.9997 15.7346 30 15.9997V22.9997H30.9999V15.9997C30.9993 15.4695 30.7884 14.9612 30.4135 14.5862C30.0386 14.2113 29.5302 14.0004 29 13.9998ZM19.7616 0.999793L20.4449 7.49982H17.5551L18.2382 0.999793H19.7616ZM13.7617 0.999793L14.4448 7.49982H11.555L12.2382 0.999793H13.7617ZM9 10.9997H7.99959V9.99984H8.99964L9 10.9997ZM10.9999 10.9997H10V9.99984H10.9999V10.9997ZM13 10.9997H11.9998V9.99984H12.9998L13 10.9997ZM24 10.9997H22.9999V9.99984H24.0003L24 10.9997ZM19.9998 10.9997H18.9997V9.99984H20.0001L19.9998 10.9997ZM21.9999 10.9997H20.9998V9.99984H21.9999V10.9997ZM7.99959 11.9996H8.99964V12.9996H7.99959V11.9996ZM9.99968 11.9996H10.9995V12.9996H10L9.99968 11.9996ZM11.9996 11.9996H12.9996V12.9996H11.9998L11.9996 11.9996ZM18.9995 11.9996H20.0001V12.9996H19.0001L18.9995 11.9996ZM22.9997 11.9996H24.0003V12.9996H23.0003L22.9997 11.9996ZM20.9998 11.9996H21.9999V12.9996H20.9998V11.9996ZM7.99959 13.9998H8.99964V14.9997H7.99959V13.9998ZM9.99968 13.9998H10.9995V14.9997H10L9.99968 13.9998ZM11.9996 13.9998H12.9996V14.9997H11.9998L11.9996 13.9998ZM18.9995 13.9998H20.0001V14.9997H19.0001L18.9995 13.9998ZM22.9997 13.9998H24.0003V14.9997H23.0003L22.9997 13.9998ZM20.9998 13.9998H21.9999V14.9997H20.9998V13.9998ZM16.4999 9.49972V14.9997H15.5V9.49972H16.4999ZM19.3847 16.0407C17.4118 15.837 15.4607 16.386 13.871 17.5837C12.8983 18.3175 11.8229 18.7215 10.763 18.7506C10.3654 18.7628 9.97056 18.8212 9.58645 18.9246C7.4631 19.4904 5.84167 21.2957 5.55134 23.4164C5.51767 23.6648 5.50074 23.9152 5.50066 24.1659C5.50066 24.2783 5.50952 24.3887 5.51604 24.4997C5.67333 27.105 7.65569 29.2436 10.2563 29.5388C10.54 29.5714 11.5415 29.9519 12.5093 30.32C14.2469 30.9798 16.4078 31.8014 17.7032 31.9491C18.0001 31.9832 18.2987 32.0003 18.5975 32.0003C22.7451 32.0003 26.2089 28.7136 26.4833 24.5183C26.4833 24.5124 26.4833 24.5064 26.4833 24.5002C26.4938 24.3337 26.4992 24.1678 26.4994 24.0026C26.5 19.9456 23.3746 16.449 19.3847 16.0407ZM25.4845 24.4526C25.4845 24.4687 25.4815 24.4843 25.4802 24.5004C25.3667 26.0919 24.7157 27.5976 23.634 28.7705L21.9403 27.3266L21.2912 28.0868L22.9011 29.459C21.7157 30.4232 20.2163 30.9995 18.5965 30.9995C18.3354 30.9994 18.0746 30.9846 17.8152 30.9552C16.7928 30.8386 15.064 30.2156 13.5193 29.6338L14.1385 28.0484L16.457 27.7753L16.3395 26.7821L14.5519 26.9926L15.1206 25.5368L14.3029 24.4997L13.7323 23.7757L12.9473 24.3951L13.0295 24.4993L13.9809 25.7064L12.5855 29.2789C11.4271 28.8396 10.7308 28.5866 10.3697 28.5453C8.27418 28.308 6.67121 26.5957 6.51536 24.4997C6.50722 24.3893 6.49998 24.2783 6.49998 24.1659C6.50002 23.9601 6.51405 23.7544 6.54197 23.5505C6.77727 21.8239 8.10457 20.3532 9.84366 19.8895C10.1527 19.8062 10.4705 19.7593 10.7905 19.7498C10.8321 19.7485 10.8737 19.7433 10.9157 19.7411L9.78791 21.4983L10.6205 22.8317L9.38825 24.0752L9.81542 24.4988L10.098 24.7792L10.376 24.4988L11.8872 22.9745L10.9726 21.5062L12.2492 19.5152C13.0195 19.2911 13.7722 18.9096 14.4736 18.3809C15.6738 17.4758 17.0945 16.998 18.5823 16.998C18.8026 16.998 19.026 17.0099 19.247 17.0313L18.0162 18.873L15.5532 19.7869L15.9009 20.7245L17.0885 20.2841L17.2382 21.3339L18.2281 21.1929L18.0471 19.9273L18.6672 19.6973L20.3189 17.2244C23.2949 18.0176 25.5001 20.8103 25.5001 23.9994C25.4999 24.1512 25.4956 24.3009 25.4845 24.4526ZM20.0856 22.1066C19.8213 22.0761 19.5536 22.0983 19.2979 22.1719C19.0423 22.2455 18.8038 22.3692 18.5963 22.5356C18.3077 22.7664 18.0867 23.0706 17.9564 23.4164C17.8261 23.7621 17.7913 24.1366 17.8558 24.5004C18.0086 25.3727 18.7139 26.0793 19.6296 26.1837C19.7064 26.1924 19.7837 26.1967 19.8609 26.1968C20.3182 26.1968 20.7617 26.0408 21.1182 25.7544C21.5107 25.4417 21.7741 24.9952 21.8578 24.5004C21.865 24.4582 21.8733 24.4166 21.8782 24.3737C22.0038 23.2497 21.1996 22.2326 20.0863 22.1059L20.0856 22.1066ZM20.4948 24.9726C20.3901 25.0569 20.2698 25.1194 20.1407 25.1567C20.0116 25.194 19.8764 25.2053 19.7429 25.1898C19.3395 25.1435 19.0189 24.864 18.8895 24.4999C18.8134 24.2929 18.8043 24.0673 18.8637 23.855C18.923 23.6426 19.0477 23.4543 19.22 23.3168C19.4004 23.172 19.6247 23.0929 19.8561 23.0926C19.895 23.0924 19.9338 23.0947 19.9724 23.0993C20.5392 23.1641 20.9484 23.6861 20.8842 24.2626C20.8743 24.3436 20.8552 24.4232 20.8273 24.4999C20.7634 24.6853 20.6484 24.8489 20.4955 24.9719L20.4948 24.9726Z" fill="#E30517"/>
</g>
<defs>
<clipPath id="clip0_14004_21103">
<rect width="32" height="32" fill="white"/>
</clipPath>
</defs>
</svg>
